<?xml version="1.0" encoding="UTF-8"?>
<svg id="Ebene_1" xmlns="http://www.w3.org/2000/svg" xmlns:xlink="http://www.w3.org/1999/xlink" version="1.1" viewBox="0 0 48 48">
  <!-- Generator: Adobe Illustrator 29.5.1, SVG Export Plug-In . SVG Version: 2.1.0 Build 141)  -->
  <defs>
    <style>
      .st0 {
        mask: url(#mask);
      }

      .st1 {
        filter: url(#luminosity-noclip);
      }

      .st2 {
        stroke-width: .5px;
      }

      .st2, .st3, .st4 {
        fill: none;
        stroke: #fff;
        stroke-miterlimit: 10;
      }

      .st5 {
        fill: #fff;
      }

      .st3 {
        stroke-width: .3px;
      }

      .st4 {
        stroke-width: .2px;
      }

      .st6 {
        fill: #326ce5;
      }
    </style>
    <filter id="luminosity-noclip" x="4.6" y="5.4" width="38.8" height="37.2" color-interpolation-filters="sRGB" filterUnits="userSpaceOnUse">
      <feFlood flood-color="#fff" result="bg"/>
      <feBlend in="SourceGraphic" in2="bg"/>
    </filter>
    <mask id="mask" x="4.6" y="5.4" width="38.8" height="37.2" maskUnits="userSpaceOnUse">
      <g class="st1">
        <g id="mask1" data-name="mask">
          <g id="g3823">
            <path id="path3819" d="M24,5.4C13.7,5.4,5.4,13.7,5.4,24s8.3,18.6,18.6,18.6,18.6-8.3,18.6-18.6S34.3,5.4,24,5.4M24,41c-9.4,0-17-7.6-17-17S14.6,7,24,7s17,7.6,17,17c0,9.4-7.6,17-17,17"/>
            <path id="path3821" d="M22.7,32c-.6,0-.9-.2-1.5-.5-1.8-.8-3.2-2.1-4.1-3.8h0s0,0-.1,0c-.2,0-.4,0-.5-.2-.1-.2-.1-.4,0-.5v-.5c.1,0,.7-1.6.7-1.6,0-.3.4-.5.7-.4.1,0,.2,0,.3.2l1.5,1.7c.2.2.2.6,0,.8,0,0,0,0,0,0,.3.4.6.7.9,1,.3.2.7.3,1.1.4.5.1,1.1.2,1.6.3v-6.6h-1.4c-.2.2-.5.2-.7.2-.3,0-.7-.1-.9-.4-.4-.5-.4-1.1,0-1.6.2-.3.5-.4.9-.4.3,0,.5,0,.7.2h1.4v-.2c-.9-.4-1.4-1.1-1.6-2-.3-1.3.6-2.7,1.9-3,.2,0,.5,0,.7,0,.7,0,1.4.3,1.9.8.5.5.8,1.2.8,1.9,0,1.1-.5,1.9-1.4,2.4v.3h1.2c.2-.2.5-.2.7-.2.3,0,.7.1.9.4.4.5.4,1.2,0,1.6-.2.2-.5.4-.9.4-.3,0-.5,0-.7-.2h0c-.3,0-.7,0-1,0h-.2v6.6c.4,0,.8,0,1.2-.2.5,0,.9-.2,1.3-.4.4-.2.7-.5,1-.9-.3-.2-.3-.6-.1-.8,0,0,0,0,0,0l1.6-1.5c.1-.1.3-.2.4-.2.3,0,.5.2.6.5.2.7.3,1.4.5,2,0,.4-.1.7-.5.8,0,0-.1,0-.2,0,0,0-.1,0-.2,0-.8,1.5-2,2.6-3.4,3.3h-.3c-.7.5-1.2.7-2,.8l-1.3,1.3-1.3-1.3ZM24,16.8c-.4,0-.7.3-.8.8,0,.2,0,.4.2.5.1.2.3.2.5.2h0c.4,0,.7-.3.8-.8s-.3-.8-.7-.8c0,0,0,0,0,0h0Z"/>
          </g>
        </g>
      </g>
    </mask>
  </defs>
  <g id="g295">
    <g id="g226">
      <g id="Background_wavy_outline">
        <path id="path3838" class="st6" d="M48,24c0,2.5-1.5,4.8-2.3,7.1-.8,2.4-.9,5.1-2.3,7.1-1.4,2-4,2.9-6,4.4-2,1.4-3.6,3.6-6,4.4-2.3.7-4.9,0-7.4,0s-5.1.7-7.4,0c-2.4-.8-4-2.9-6-4.4-2-1.4-4.6-2.4-6-4.4-1.4-2-1.5-4.7-2.3-7.1C1.5,28.8,0,26.5,0,24s1.5-4.8,2.3-7.1c.8-2.4.9-5.1,2.3-7.1,1.4-2,4-2.9,6-4.4,2-1.4,3.6-3.6,6-4.4,2.3-.7,4.9,0,7.4,0s5.1-.7,7.4,0c2.4.8,4,2.9,6,4.4,2,1.4,4.6,2.4,6,4.4,1.4,2,1.5,4.7,2.3,7.1.7,2.3,2.3,4.5,2.3,7.1"/>
      </g>
      <g id="Waves">
        <g class="st0">
          <g id="g3847">
            <path id="path3841" class="st4" d="M4.6,21.3c2.8,0,2.8,1.3,5.5,1.3s2.8-1.3,5.5-1.3,2.8,1.3,5.5,1.3,2.8-1.3,5.5-1.3,2.8,1.3,5.5,1.3,2.8-1.3,5.5-1.3,2.8,1.3,5.5,1.3"/>
            <path id="path3843" class="st3" d="M4.6,23.9c2.8,0,2.8,1.3,5.5,1.3s2.8-1.3,5.5-1.3,2.8,1.3,5.5,1.3,2.8-1.3,5.5-1.3,2.8,1.3,5.5,1.3,2.8-1.3,5.5-1.3,2.8,1.3,5.5,1.3"/>
            <path id="path3845" class="st2" d="M4.6,27.1c2.8,0,2.8,1.3,5.5,1.3s2.8-1.3,5.5-1.3,2.8,1.3,5.5,1.3,2.8-1.3,5.5-1.3,2.8,1.3,5.5,1.3,2.8-1.3,5.5-1.3,2.8,1.3,5.5,1.3"/>
          </g>
        </g>
      </g>
      <g id="Text">
        <g id="g3878">
          <g id="Text_and_detail">
            <path id="Circle" class="st5" d="M24,3.6C12.7,3.6,3.6,12.7,3.6,24s9.1,20.4,20.4,20.4,20.4-9.1,20.4-20.4S35.3,3.6,24,3.6M24,42.6c-10.3,0-18.6-8.3-18.6-18.6C5.4,13.7,13.7,5.4,24,5.4c10.3,0,18.6,8.3,18.6,18.6s-8.3,18.6-18.6,18.6"/>
            <g id="LETTERS">
              <path id="path3851" class="st5" d="M14.6,33.2c0-.2-.4-.4-.6-.4-.3,0-.7.1-1.1.2.2-.4.3-.7.4-1.1.1-.3-.1-.4-.3-.6s-.3,0-.4.1c-.6.4-1.1.9-1.6,1.3-.3.2,0,.3,0,.5s.2.3.4.1c.3-.2.5-.4.8-.6,0,0,0,0,0,0,0,.2-.1.3-.2.5-.1.3,0,.6.4.5.1,0,.3,0,.5,0-.3.2-.5.4-.8.6-.2.2-.1.3,0,.4s.2.4.4.2c.6-.5,1.2-1,1.8-1.5,0,0,.1,0,.1-.2"/>
              <path id="path3853" class="st5" d="M25.5,11.3c.4.2.6,0,.7-.3,0,0,0-.2,0-.3,0,0,0-.2.1-.2s.3,0,.3.2,0,.3.1.5c.1.5.2.5.7.6.2,0,.2,0,.2-.2,0-.2-.1-.5-.2-.7,0-.1,0-.2,0-.2.4-.2.5-.5.5-.9,0-.4-.3-.8-.7-.9-.4-.1-.8-.2-1.2-.3-.2,0-.2,0-.3.2-.2.8-.3,1.6-.5,2.4,0,.1,0,.2.1.3M26.7,9.2c.3,0,.6.2.6.4s-.1.3-.3.3c-.1-.1-.5,0-.5-.2,0-.1,0-.4.2-.4h0Z"/>
              <path id="path3855" class="st5" d="M21.2,36.8c-.2,0-.4-.1-.4.2,0,.3-.2.7-.3,1.1-.2-.5-.3-.9-.5-1.4,0-.3-.3-.3-.5-.3-.2,0-.2.2-.2.3-.2.7-.4,1.4-.6,2-.1.3.1.3.3.4.2,0,.4.1.4-.2,0-.3.2-.7.3-1.1,0,.1,0,.2,0,.2.1.4.3.8.4,1.2,0,.3.4.3.6.3s.2-.2.2-.3c.2-.7.4-1.4.6-2,0-.3-.1-.3-.3-.4"/>
              <path id="path3857" class="st5" d="M36.9,32.7c-.2,0-.4,0-.6-.1-.2,0-.2,0-.2-.3,0-.5-.4-.8-.9-.8-.3,0-.5.1-.7.4-.2.3-.4.6-.7.8-.2.2-.1.3,0,.4.6.4,1.1.9,1.7,1.3.2.2.3.1.4,0,.3-.4.3-.3,0-.6,0,0-.2-.1-.2-.2,0,0-.2,0-.1-.2,0,0,.1-.2.3-.2s.3,0,.5,0c.4.1.6,0,.8-.3.1-.2.1-.3-.1-.3M35,33s-.4-.3-.4-.3c0-.1.4-.5.5-.5.2,0,.3.1.3.3,0,.1-.3.6-.4.6"/>
              <path id="path3859" class="st5" d="M20.7,11.3c0,.1,0,.2.2.2.6-.1,1.2-.2,1.8-.3.3,0,0-.3,0-.5,0-.2,0-.2-.3-.2-.3,0-.6.1-1,.2-.2,0-.2,0-.2-.2,0-.1,0-.2.2-.2.3,0,.5-.1.8-.1.3,0,.2-.2.2-.4s0-.3-.3-.3c-.2,0-.5,0-.7.1-.2,0-.3,0-.3-.2,0-.2,0-.2.2-.3.3,0,.5,0,.8-.1.2,0,.3,0,.2-.3,0-.2,0-.4-.3-.4-.5.1-1,.2-1.5.3-.2,0-.3.1-.2.3.1.8.3,1.5.4,2.3"/>
              <path id="path3861" class="st5" d="M29.4,37.1c-.2,0-.4.1-.6.2-.2,0-.3.1-.2.3,0,.2,0,.4.4.3,0,0,.1,0,.2,0s0,.2,0,.2c0,.2-.2.3-.4.3s-.3,0-.4-.2c-.1-.2-.2-.5-.3-.7,0-.4.3-.7.6-.5.3.1.5,0,.7,0,.2,0,.2-.1,0-.3-.2-.3-.5-.4-.9-.4-.4,0-.7.1-1,.4-.3.3-.5.7-.3,1.1.2.6.3,1.2,1,1.4.5.1,1,0,1.4-.4.4-.4.3-.9.1-1.4,0-.2-.2-.3-.4-.2"/>
              <path id="path3863" class="st5" d="M33.5,35.9c-.2.2-.5.3-.7.5-.1.1-.2,0-.3,0s-.1-.2,0-.3c.2-.1.4-.3.6-.5,0,0,.2,0,.1-.2,0-.1-.2-.3-.3-.4-.1,0-.2,0-.3.1-.2.1-.4.3-.6.4-.2.1-.2,0-.3,0,0-.1,0-.2,0-.3.2-.2.5-.3.7-.5.2-.1.2-.2,0-.4-.1-.1-.2-.3-.4-.2-.4.3-.9.6-1.3.9-.1,0-.1.2,0,.3.5.6.9,1.3,1.3,1.9,0,.1.2.2.3,0,.4-.3.9-.6,1.4-1,.2-.1,0-.3,0-.4s-.2-.3-.4-.1"/>
              <path id="path3865" class="st5" d="M16.6,34.8c0,0-.2,0-.3,0-.7.5-1.3,1-2,1.5,0,0-.2.2,0,.2.2.1.4.5.8.1,0,0,0,0,.1,0,.2.2.5.3.7.5,0,0,0,.1,0,.2,0,.3.2.6.4.6.3,0,.2-.3.2-.4,0,0,0,0,0,0,.2-.7.3-1.4.5-2.1,0-.3-.4-.3-.6-.5M16.2,36.6q-.5-.3,0-.6c0,0,.2-.1.3-.2,0,.3,0,.6-.2.9"/>
              <path id="path3867" class="st5" d="M15.8,12.8c.3.5.8.6,1.4.4.6-.2,1-.7,1-1.2,0-.1,0-.2,0-.3,0,0,0-.1-.1-.1-.2,0-.5.3-.5.5,0,.3-.2.4-.4.5-.2,0-.4,0-.5-.2-.1-.2-.3-.4-.4-.6,0-.2,0-.4,0-.5s.4-.2.6-.1c.2,0,.6,0,.7-.2,0-.1,0-.2,0-.2-.2-.2-.4-.3-.7-.3-.9,0-1.6.7-1.5,1.4,0,.4.3.7.5,1.1"/>
              <path id="path3869" class="st5" d="M25,37.6c-.2-.6-.4-.7-1-.5,0,0-.2,0-.2.2-.2.8-.5,1.6-.7,2.4,0,0,0,.2,0,.2.2.1.6,0,.7-.3,0,0,0-.2.2-.2.3,0,.5,0,.8,0,0,0,.2,0,.2.1,0,.3.2.3.4.3.4,0,.4,0,.3-.4-.2-.6-.5-1.2-.7-1.8M24.3,38.8c-.2,0-.2,0-.2-.2,0-.2.1-.4.2-.7,0,.2.2.4.2.5.1.4.1.4-.3.4"/>
              <path id="path3871" class="st5" d="M30.8,13.2c.2,0,.3.3.5,0,.2-.4.5-.8.7-1.2.3-.5.3-.5.8-.2.3.2.3,0,.4-.2.1-.2.2-.3,0-.4-.5-.3-1-.6-1.5-1-.2-.1-.3-.1-.5.1-.2.2-.1.4.1.5.1,0,.3.1.4.3,0,0,0,.1-.1.2-.3.5-.6.9-.9,1.4-.2.3,0,.3.2.4"/>
            </g>
            <g id="New_Anchor">
              <path id="path3874" class="st5" d="M31.4,27.4c-.2-.7-.3-1.4-.5-2.1,0-.1-.1-.2-.3-.2,0,0,0,0,0,0l-1.6,1.5c0,0,0,.2,0,.3,0,0,0,0,0,0,0,0,.1,0,.2,0,.1,0,.1,0,0,.2-.3.5-.8,1-1.3,1.3h0c-.5.2-.9.4-1.4.5-.5,0-1,.2-1.5.2,0,0-.1,0-.1-.1,0,0,0,0,0,0v-7.2s0,0,0,0h0c0,0,.1,0,.3,0,.4,0,.8,0,1.1,0,.1,0,.2,0,.3,0,.3.3.8.2,1.1,0,.3-.3.3-.8,0-1.1-.3-.3-.8-.4-1.1-.1,0,0-.1,0-.2,0-.5,0-1.1,0-1.6,0,0,0,0,0,0,0v-.8s0,0,0,0c0,0,0,0,.1,0,.8-.4,1.3-1.1,1.3-2.1,0-1.5-1.5-2.6-2.9-2.2-1.1.3-1.9,1.4-1.7,2.6.2.8.7,1.4,1.5,1.8,0,0,0,0,0,0,0,0,0,0,0,0v.7c0,0,0,.1-.1.1,0,0,0,0,0,0-.6,0-1.1,0-1.7,0,0,0-.2,0-.2,0-.3-.3-.8-.2-1.1.1-.3.3-.3.8,0,1.1.3.3.7.3,1,0,0,0,.1,0,.2,0,.5,0,1.1,0,1.6,0,0,0,0,0,.1,0,0,0,0,0,0,0v7.2c0,0,0,.1-.1.1,0,0,0,0,0,0-.7,0-1.3-.2-2-.3-.4,0-.8-.2-1.2-.4,0,0,0,0,0,0-.5-.4-1-.8-1.3-1.4,0,0,0,0,0-.1,0,0,0,0,0,0h.2c.1,0,.2-.2.2-.3,0,0,0,0,0,0l-1.5-1.7c0,0-.2,0-.3,0,0,0,0,0,0,0-.2.7-.4,1.4-.7,2.1,0,.1,0,.2.1.3,0,0,0,0,.1,0h.1c.1,0,.3,0,.4.1.9,1.7,2.2,2.9,3.9,3.7.7.3.9.4,1.5.5,0,0,0,0,0,0l.9.9c.1.1.3.1.4,0l.9-.8s0,0,0,0c.9,0,1.3-.3,2.2-.7,1.4-.7,2.6-1.8,3.3-3.2,0-.1.1-.1.2-.1,0,0,0,0,.1,0,.1,0,.3,0,.3-.2,0,0,0,0,0-.1M23.9,18.8c-.6,0-1.1-.6-1.1-1.2,0,0,0,0,0,0,0-.7.6-1.2,1.2-1.1.7,0,1.1.6,1.1,1.2,0,.7-.6,1.2-1.2,1.1"/>
            </g>
          </g>
        </g>
      </g>
    </g>
  </g>
</svg>