<?xml version="1.0" encoding="UTF-8"?>
<svg id="Ebene_1" data-name="Ebene 1" xmlns="http://www.w3.org/2000/svg" xmlns:xlink="http://www.w3.org/1999/xlink" viewBox="0 0 597.777 170.185">
  <defs>
    <style>
      .cls-1 {
        mask: url(#mask);
      }

      .cls-2 {
        filter: url(#luminosity-noclip);
      }

      .cls-3 {
        stroke-width: .457px;
      }

      .cls-3, .cls-4, .cls-5 {
        fill: none;
        stroke: #fff;
        stroke-miterlimit: 10;
      }

      .cls-6 {
        fill: #fff;
      }

      .cls-4 {
        stroke-width: .327px;
      }

      .cls-5 {
        stroke-width: .196px;
      }

      .cls-7 {
        fill: #f80;
      }

      .cls-8 {
        fill: #326ce5;
      }
    </style>
    <filter id="luminosity-noclip" x="481.653" y="58.431" width="103.8" height="99.591" color-interpolation-filters="sRGB" filterUnits="userSpaceOnUse">
      <feFlood flood-color="#fff" result="bg"/>
      <feBlend in="SourceGraphic" in2="bg"/>
    </filter>
    <mask id="mask" x="481.653" y="58.431" width="103.8" height="99.591" maskUnits="userSpaceOnUse">
      <g class="cls-2">
        <g id="mask-2" data-name="mask">
          <g id="g3823">
            <path id="path3819" d="M533.564,58.431c-27.501,0-49.796,22.295-49.796,49.796s22.295,49.796,49.796,49.796,49.796-22.298,49.796-49.796-22.295-49.796-49.796-49.796M533.552,153.691c-25.117,0-45.447-20.34-45.452-45.457-.005-25.117,20.384-45.515,45.517-45.469,25.133.045,45.435,20.389,45.41,45.497-.024,25.108-20.361,45.436-45.475,45.429"/>
            <path id="path3821" d="M530.012,129.598c-1.56-.246-2.388-.545-4.141-1.329-4.829-2.16-8.52-5.615-10.942-10.271l-.213.047c-.115.025-.232.038-.349.038-.52-.001-1.008-.25-1.315-.669-.31-.419-.399-.962-.239-1.458l.396-1.256,1.371-4.389c.256-.83,1.136-1.295,1.965-1.039.27.083.512.237.702.447l4.062,4.427c.591.645.548,1.647-.097,2.238-.05.046-.104.089-.16.128.696.985,1.553,1.844,2.536,2.543.912.42,1.863.751,2.84.987,1.42.356,2.863.613,4.319.768v-17.537h-3.759c-.556.412-1.229.635-1.921.636-.905-.001-1.767-.387-2.37-1.062-1.087-1.217-1.095-3.053-.019-4.279.599-.69,1.467-1.088,2.381-1.093.691,0,1.364.219,1.921.629h3.769v-.582c-2.332-1.008-3.804-2.854-4.269-5.358-.671-3.596,1.617-7.177,5.215-8.151.611-.166,1.242-.251,1.876-.252,1.871.011,3.667.74,5.016,2.036,1.386,1.32,2.169,3.151,2.166,5.065,0,2.856-1.336,5.065-3.863,6.417v.817h3.254c.559-.406,1.231-.625,1.921-.629.906,0,1.769.391,2.368,1.071,1.102,1.238,1.088,3.108-.031,4.33-.598.656-1.445,1.03-2.333,1.027-.689,0-1.362-.216-1.921-.618h-.105c-.882.052-1.781.059-2.653.068h-.513v17.637c1.073-.07,2.14-.207,3.196-.41,1.208-.218,2.382-.592,3.493-1.113.988-.624,1.864-1.41,2.592-2.325-.698-.516-.846-1.5-.33-2.198.056-.075.118-.146.187-.21l4.316-4.131c.297-.287.694-.448,1.107-.447.744-.006,1.395.5,1.572,1.223.447,1.832.891,3.645,1.34,5.486.232.948-.348,1.905-1.296,2.138-.137.034-.277.051-.418.051-.152,0-.303-.019-.451-.058-2.159,3.931-5.336,6.939-9.213,8.712l-.714.341c-1.982.915-3.125,1.441-5.22,1.671l-3.476,3.409-3.549-3.523ZM533.505,88.853c-1.093,0-1.989.903-2.042,2.054-.029.54.16,1.069.524,1.469.372.406.892.646,1.443.665h.189c1.088,0,1.958-.873,2.019-2.026.061-1.153-.795-2.071-1.993-2.164-.028.003-.084.002-.133.002h-.007Z"/>
          </g>
        </g>
      </g>
    </mask>
  </defs>
  <path class="cls-7" d="M55.56,15.87c-8.765.006-15.874-7.095-15.88-15.86,0-.003,0-.007,0-.01h55.56c8.765,0,15.87,7.105,15.87,15.87,0,0,0,0,0,0v55.56c-8.765,0-15.87-7.105-15.87-15.87h0v-31.75c0-4.385-3.555-7.94-7.94-7.94h-31.74Z"/>
  <rect class="cls-7" y="31.75" width="79.37" height="79.37" rx="7.94" ry="7.94"/>
  <path class="cls-7" d="M190.23,103.39c-4.4,8.33-15.83,8.92-24.63,8.92-6.79,0-13.57-.47-17.5-.83-4.88-.47-6.19-1.66-6.19-4.16v-4c0-4.29.72-5.71,4.53-5.71,7,0,10.59,1,20.94,1,8,0,9.52-.6,9.52-7.74,0-8.09-.12-8.68-4.16-10.35-5.12-2.14-10-4.17-15-6.31-12.38-5.35-14.87-7.73-14.87-21.89,0-9.05,1.66-16.07,11.78-19.4,4.4-1.43,9.52-1.91,16.54-1.91,5.47,0,8.33.24,13.45.6,4.87.36,6.3,1.55,6.3,4.16v3.93c0,4.29-.83,5.71-4.64,5.71-4.16,0-4.52-.71-21.42-.71-6.66,0-6.42,2.86-6.42,8.69,0,4.28.11,5.23,4.16,7,3.21,1.43,6.55,2.74,9.76,4.16,16.54,7,20.11,8.69,20.11,22.26,0,4.44-.12,12.41-2.26,16.58Z"/>
  <path class="cls-7" d="M255.39,45.43c-6.78,0-12.38-.12-17.49-.24v60.82c0,3.57-1.67,5.23-5.12,5.23h-5.12c-3.93,0-5.71-1.07-5.71-5.23v-60.82c-5.12.12-10.83.24-17.61.24-4.88,0-5-3.09-5-5.59v-3.21c0-4,2.26-4.88,5-4.88h51.05c2.74,0,5.12.83,5.12,4.88v3.24c0,2.47-.24,5.56-5.12,5.56Z"/>
  <path class="cls-7" d="M323.17,111.24h-7.14c-3,0-5-.35-7.26-3.21l-20.23-25.71h-3.69v23.69c0,3.57-1.55,5.23-5,5.23h-5.11c-3.93,0-5.83-1.07-5.83-5.23V36.63c0-4.65,3.21-4.88,5.83-4.88h22c12.49,0,15.71.83,20.35,5.59,4.4,4.4,6.19,12,6.19,22.25,0,9.76-2.86,15.83-7.86,19.28-2.41,1.558-5.148,2.537-8,2.86l18.25,22.14c2.38,2.85,2.85,7.37-2.5,7.37ZM304.24,46.24c-1.9-1-7-1-9.16-1-3.81,0-6.9.12-10.23.24v23.28h13.45c4.28,0,6.42-.72,7.73-2.38,1.07-1.43,1.43-3.33,1.43-7.74,0-4.88-.48-10.95-3.22-12.37v-.03Z"/>
  <path class="cls-7" d="M400.49,111.24h-6.54c-3.69,0-4.76-1.78-5.6-4.16l-5.23-14.88c-5.12.12-8.93.12-14.16.12-5,0-9.41,0-13.69-.12l-4.76,14c-1.07,3.21-2,5-6.07,5h-5.47c-4.05,0-4.65-1.07-4.65-2.85.144-1.274.482-2.518,1-3.69l24.39-68.07c1.31-3.69,2.62-5.36,7-5.36h4.88c4.41,0,5.72,1.67,7,5.24l25.71,69.4c.271.558.433,1.162.48,1.78-.04,3-2.39,3.59-4.29,3.59ZM369.07,51.87l-9.52,28.08c2.74,0,5.95-.12,9.41-.12,3.68,0,6.18.12,9.63.12l-9.52-28.08Z"/>
  <path class="cls-7" d="M454.28,45.43c-6.79,0-12.38-.12-17.5-.24v60.82c0,3.57-1.66,5.23-5.12,5.23h-5.11c-3.93,0-5.72-1.07-5.72-5.23v-60.82c-5.11.12-10.82.24-17.61.24-4.88,0-5-3.09-5-5.59v-3.21c0-4,2.26-4.88,5-4.88h51.06c2.73,0,5.11.83,5.11,4.88v3.24c0,2.47-.24,5.56-5.11,5.56Z"/>
  <path class="cls-7" d="M521.56,103.74c-5.72,6.79-13.69,10-25,10s-19.52-3.21-25.11-10c-7-8.32-8.81-19.87-8.81-32.13s1.79-23.8,8.81-32.13c5.83-6.9,14-10,25.11-10s19.15,3.09,25,10c7,8.33,8.92,19.88,8.92,32.13s-1.9,23.81-8.92,32.13ZM511.32,51.03c-2.61-5.6-8.09-7.62-14.75-7.62s-12.14,2-14.76,7.62c-2.26,5-2.62,14.52-2.62,20.58s.36,15.48,2.62,20.47c2.62,5.6,8.09,7.74,14.76,7.74s12.14-2.14,14.75-7.74c2.26-5,2.62-14.4,2.62-20.47s-.36-15.59-2.62-20.58Z"/>
  <g id="g295">
    <g id="g226">
      <g id="Background_wavy_outline" data-name="Background wavy outline">
        <path id="path3838" class="cls-8" d="M597.777,108.218c0,6.759-4.14,12.781-6.116,18.873-2.052,6.321-2.314,13.612-6.143,18.873-3.867,5.314-10.746,7.799-16.06,11.667-5.262,3.829-9.73,9.625-16.049,11.679-6.099,1.98-13.094-.019-19.852-.019s-13.753,1.999-19.85.019c-6.321-2.053-10.789-7.85-16.051-11.679-5.314-3.867-12.193-6.352-16.06-11.667-3.829-5.26-4.091-12.551-6.143-18.873-1.98-6.099-6.116-12.121-6.116-18.873s4.14-12.781,6.116-18.873c2.052-6.321,2.314-13.612,6.143-18.873,3.867-5.312,10.746-7.799,16.06-11.665,5.262-3.829,9.73-9.627,16.051-11.679,6.097-1.98,13.093.017,19.85.017s13.753-1.997,19.85-.017c6.321,2.052,10.789,7.85,16.051,11.679,5.314,3.866,12.193,6.352,16.06,11.665,3.829,5.262,4.091,12.553,6.143,18.873,1.976,6.092,6.116,12.116,6.116,18.873"/>
      </g>
      <g id="Waves">
        <g class="cls-1">
          <g id="g3847">
            <path id="path3841" class="cls-5" d="M481.653,101.074c7.415,0,7.415,3.495,14.828,3.495s7.415-3.495,14.83-3.495,7.413,3.495,14.828,3.495,7.413-3.495,14.828-3.495,7.415,3.495,14.828,3.495,7.415-3.495,14.83-3.495,7.415,3.495,14.83,3.495"/>
            <path id="path3843" class="cls-4" d="M481.653,108.064c7.415,0,7.415,3.495,14.828,3.495s7.415-3.495,14.83-3.495,7.413,3.495,14.828,3.495,7.413-3.495,14.828-3.495,7.415,3.495,14.828,3.495,7.415-3.495,14.83-3.495,7.415,3.495,14.83,3.495"/>
            <path id="path3845" class="cls-3" d="M481.653,116.452c7.415,0,7.415,3.495,14.828,3.495s7.415-3.495,14.83-3.495,7.413,3.495,14.828,3.495,7.413-3.495,14.828-3.495,7.415,3.495,14.828,3.495,7.415-3.495,14.83-3.495,7.415,3.495,14.83,3.495"/>
          </g>
        </g>
      </g>
      <g id="Text">
        <g id="g3878">
          <g id="Text_and_detail" data-name="Text and detail">
            <path id="Circle" class="cls-6" d="M533.553,53.667c-30.127,0-54.551,24.424-54.551,54.551s24.423,54.551,54.551,54.551,54.551-24.417,54.551-54.551-24.424-54.551-54.551-54.551M533.539,158.023c-27.513,0-49.785-22.283-49.791-49.796,0-27.543,22.33-49.857,49.862-49.805,27.532.052,49.771,22.333,49.747,49.843s-22.305,49.766-49.819,49.757"/>
            <g id="LETTERS">
              <path id="path3851" class="cls-6" d="M508.389,132.935c-.175-.603-1.005-1.202-1.65-1.122-.916.117-1.828.269-2.929.433.405-1.075.748-1.992,1.097-2.91.302-.797-.35-1.183-.758-1.609s-.729.112-1.007.332c-1.48,1.173-2.915,2.403-4.409,3.556-.709.547-.175.865.112,1.258s.578.835,1.164.32c.675-.592,1.388-1.143,2.097-1.718.026.066.051.098.044.119-.14.405-.292.807-.428,1.215-.285.86.266,1.487,1.169,1.346.376-.059.758-.175,1.206.017-.727.596-1.358,1.155-2.032,1.653-.554.409-.288.743.045,1.049s.474,1.103,1.188.524c1.607-1.296,3.208-2.595,4.804-3.899.164-.135.376-.26.287-.564"/>
              <path id="path3853" class="cls-6" d="M537.599,74.15c1.143.472,1.595.255,1.831-.926.052-.257.1-.512.163-.765.051-.206,0-.554.316-.51s.722-.021.837.451.259.889.388,1.333c.363,1.223.613,1.414,1.859,1.478.468.024.573-.135.449-.552-.196-.666-.365-1.34-.573-2.003-.096-.302-.175-.481.239-.654,1.01-.426,1.283-1.342,1.354-2.284,0-1.164-.699-2.015-2.006-2.364-1.063-.283-2.153-.46-3.229-.699-.402-.087-.603.075-.678.46-.412,2.097-.832,4.208-1.239,6.316-.054.285-.094.563.288.72M540.664,68.733c.883-.089,1.734.421,1.725.944s-.315.776-.907.792c-.365-.308-1.213.192-1.337-.589-.052-.33-.175-1.068.519-1.139v-.007Z"/>
              <path id="path3855" class="cls-6" d="M526.091,142.515c-.496-.163-1.003-.367-1.178.458-.19.907-.481,1.791-.781,2.883-.46-1.367-.886-2.537-1.241-3.729-.232-.779-.9-.772-1.463-.874-.62-.101-.509.524-.606.874-.524,1.81-.975,3.645-1.538,5.445-.276.888.379.807.816.959.465.159.956.35,1.132-.419.211-.921.493-1.826.778-2.855.117.269.197.423.252.584.35,1.049.715,2.085,1.049,3.135.239.776.938.729,1.496.806s.442-.524.535-.841c.524-1.814.966-3.651,1.538-5.447.26-.87-.343-.832-.788-.979"/>
              <path id="path3857" class="cls-6" d="M568.182,131.462c-.573-.082-1.138-.252-1.713-.306-.474-.044-.592-.208-.608-.699-.038-1.223-1.145-2.226-2.349-2.24-.827-.023-1.459.391-1.966.972-.631.722-1.173,1.52-1.805,2.24-.43.491-.376.795.136,1.181,1.531,1.157,3.049,2.333,4.533,3.547.524.419.788.376,1.174-.15.699-.952.727-.93-.215-1.66-.206-.161-.423-.311-.612-.491-.145-.138-.505-.194-.302-.509.164-.253.306-.585.727-.5s.874.098,1.281.246c.938.35,1.522-.016,2.032-.793.337-.505.355-.744-.315-.839M562.94,132.411c-.131.01-1.071-.797-1.062-.914.023-.308,1.097-1.337,1.398-1.337.404.08.699.281.732.725.019.271-.869,1.508-1.068,1.526"/>
              <path id="path3859" class="cls-6" d="M524.739,74.323c.061.35.175.629.61.561,1.573-.273,3.156-.509,4.718-.834.825-.175.257-.797.266-1.223.009-.456-.239-.594-.687-.507-.855.166-1.721.28-2.576.449-.444.087-.561-.115-.603-.495-.037-.337-.086-.599.402-.654.722-.077,1.428-.281,2.149-.358.781-.084.638-.575.554-1.071s-.189-.903-.874-.715c-.641.175-1.321.203-1.968.365-.454.115-.676.087-.771-.444-.103-.573.215-.62.62-.682.718-.107,1.433-.245,2.151-.35.46-.07.813-.197.627-.776-.149-.465.063-1.199-.896-1-1.365.285-2.74.524-4.121.699-.661.084-.751.379-.654.928.355,2.039.703,4.077,1.05,6.104"/>
              <path id="path3861" class="cls-6" d="M548.054,143.34c-.51.206-1.03.385-1.559.536-.439.14-.755.318-.493.874.208.43.152,1.145.982.813.152-.061.315-.204.463-.019s.051.405-.023.58c-.213.502-.661.716-1.162.804s-.916-.152-1.166-.589c-.35-.604-.587-1.268-.699-1.957-.163-1.019.807-1.91,1.732-1.464.762.367,1.335.073,1.982-.115.442-.129.444-.393.189-.715-.591-.744-1.398-.98-2.314-1.019-.964-.003-1.896.345-2.621.979-.874.783-1.223,1.775-.874,2.91.442,1.484.699,3.146,2.544,3.635,1.415.372,2.663-.066,3.67-1.069,1.089-1.09.825-2.361.35-3.656-.208-.552-.411-.786-1.001-.526"/>
              <path id="path3863" class="cls-6" d="M558.892,140.039c-.64.5-1.335.928-1.976,1.428-.35.273-.524.187-.75-.142s-.295-.524.08-.771c.582-.383,1.139-.802,1.706-1.208.185-.133.409-.241.388-.563-.149-.397-.402-.747-.732-1.014-.325-.229-.577.121-.83.295-.524.363-1.073.699-1.562,1.108-.407.339-.524.03-.725-.211-.241-.281-.245-.456.093-.676.655-.428,1.262-.931,1.922-1.347.542-.339.426-.668.108-1.059-.281-.35-.453-.874-1.075-.402-1.139.849-2.31,1.658-3.476,2.476-.367.257-.383.512-.126.874,1.206,1.672,2.396,3.355,3.589,5.038.217.304.428.425.786.164,1.195-.874,2.401-1.733,3.616-2.578.571-.397.225-.727-.019-1.085s-.477-.753-1.017-.329"/>
              <path id="path3865" class="cls-6" d="M513.754,137.203c-.245-.175-.503-.093-.723.079-1.769,1.375-3.535,2.752-5.3,4.131-.232.175-.405.432-.07.619.619.35,1.185,1.223,2.008.301.083-.127.253-.163.381-.082.657.43,1.319.851,1.975,1.281.175.119.117.304.096.475-.093.75.426,1.594,1.173,1.634.779.04.412-.783.657-1.169.029-.051.049-.107.059-.164.454-1.861.909-3.724,1.398-5.741-.196-.755-1.061-.912-1.653-1.363M512.635,141.872q-1.365-.802-.257-1.686c.224-.175.454-.35.783-.601-.083.781-.26,1.549-.526,2.288"/>
              <path id="path3867" class="cls-6" d="M511.498,78.299c.874,1.213,2.216,1.573,3.638,1.049,1.478-.535,2.621-1.978,2.562-3.298-.031-.316-.104-.627-.217-.924-.033-.179-.191-.307-.372-.302-.507,0-1.438.907-1.445,1.45-.009.732-.477,1.099-1.063,1.333-.554.22-1.049,0-1.375-.46-.39-.54-.737-1.11-1.038-1.704-.245-.502-.199-1.049.257-1.438s1.021-.654,1.669-.299c.454.25,1.679-.175,1.94-.617.175-.283-.049-.442-.19-.599-.477-.539-1.168-.839-1.887-.818-2.338.009-4.161,1.809-3.914,3.776.14,1.108.827,1.982,1.436,2.85"/>
              <path id="path3869" class="cls-6" d="M536.325,144.666c-.592-1.541-1-1.748-2.585-1.398-.264.028-.487.208-.571.46-.664,2.125-1.326,4.253-1.985,6.385-.058.187-.142.407.082.554.477.315,1.73-.126,1.945-.68.089-.231.091-.512.474-.505.699.014,1.398,0,2.097-.033.248-.01.402.084.446.308.135.699.554.905,1.132.755,1.183-.03,1.188-.033.8-1.049-.61-1.603-1.222-3.202-1.835-4.797M534.479,147.824c-.524,0-.601-.147-.444-.592.19-.545.35-1.101.571-1.81.232.594.404,1.022.566,1.452.363.973.355.94-.694.951"/>
              <path id="path3871" class="cls-6" d="M551.682,79.23c.409.224.799.82,1.27.031.624-1.049,1.3-2.06,1.95-3.09.783-1.237.804-1.274,2.062-.482.669.423.846-.033,1.127-.44.301-.437.419-.771-.175-1.12-1.398-.833-2.77-1.702-4.115-2.607-.571-.381-.855-.28-1.223.287-.409.624-.325.956.308,1.291.367.194.778.372,1.031.736-.129.208-.234.383-.35.554-.792,1.251-1.561,2.516-2.38,3.748-.44.678.068.858.495,1.092"/>
            </g>
            <g id="New_Anchor" data-name="New Anchor">
              <path id="path3874" class="cls-6" d="M553.333,117.281c-.449-1.842-.893-3.656-1.342-5.491-.072-.3-.374-.485-.674-.413-.097.023-.186.072-.257.141l-4.32,4.135c-.213.205-.219.543-.014.756.064.067.145.116.234.142.161.045.318.089.479.122.35.075.315.192.152.439-.905,1.379-2.097,2.546-3.495,3.422l-.035.021c-1.205.573-2.48.984-3.792,1.223-1.357.26-2.731.419-4.112.475-.177.006-.326-.133-.332-.311,0-.005,0-.011,0-.016v-19.289c0-.104.084-.189.189-.189h0c.175,0,.388.035.9.03,1.007-.01,2.055-.01,3.065-.07.329-.019.512-.009.722.149.883.698,2.154.6,2.92-.225.755-.827.764-2.092.019-2.929-.749-.84-2.018-.96-2.911-.276-.121.112-.277.179-.442.189-1.407-.007-2.814-.007-4.219,0-.086.011-.174-.012-.243-.065v-2.205c-.001-.075.025-.148.073-.206.1-.104.218-.188.35-.246,2.272-1.153,3.45-3.048,3.451-5.569,0-3.99-3.892-6.892-7.74-5.847-3.051.828-5.033,3.859-4.458,6.95.423,2.272,1.76,3.862,3.934,4.704.082.03.16.068.232.115.08.061.126.156.124.257v1.803c0,.172-.139.311-.311.311-.001,0-.002,0-.004,0-1.512-.017-3.025-.01-4.544,0-.209-.001-.412-.07-.578-.196-.896-.68-2.165-.55-2.904.297-.794.892-.715,2.258.176,3.052.772.688,1.924.732,2.747.106.164-.129.368-.196.577-.189,1.466,0,2.934.021,4.4,0,.132-.019.266.009.379.08.036.034.056.083.054.133v19.19c0,.179-.145.323-.324.323-.009,0-.017,0-.026-.001-1.781-.15-3.547-.443-5.281-.874-1.064-.257-2.099-.62-3.09-1.085-.017-.008-.034-.017-.049-.028-1.397-.981-2.563-2.256-3.415-3.736-.076-.109-.049-.26.061-.336.034-.023.073-.038.114-.042l.463-.094c.29-.065.472-.353.407-.643-.021-.091-.064-.175-.127-.244l-4.065-4.43c-.191-.217-.523-.238-.74-.047-.074.066-.129.151-.157.246-.601,1.903-1.187,3.762-1.781,5.648-.098.308.073.637.381.735.1.032.206.036.308.013l.315-.072c.398-.091.807.099.994.461,2.338,4.544,5.854,7.831,10.506,9.909,1.817.813,2.537,1.049,4.107,1.288.066.01.128.041.175.089l2.389,2.368c.333.324.864.324,1.197,0l2.321-2.272c.053-.051.122-.083.196-.091,2.324-.218,3.361-.793,5.861-1.938,3.871-1.77,6.945-4.851,8.923-8.619.175-.336.329-.376.626-.276.114.038.229.075.35.11.38.118.783-.094.902-.473.04-.129.043-.266.009-.397M533.394,94.243c-1.709-.06-3.046-1.494-2.986-3.204,0-.009,0-.018.001-.028.084-1.828,1.604-3.177,3.32-3.046,1.807.14,3.051,1.592,2.96,3.266-.098,1.821-1.59,3.139-3.296,3.011"/>
            </g>
          </g>
        </g>
      </g>
    </g>
  </g>
</svg>