<svg xmlns="http://www.w3.org/2000/svg" viewBox="0 0 531 114"><defs><style>.a{fill:#f80;}</style></defs><path class="a" d="M55.82,16A15.87,15.87,0,0,1,39.94.13H95.5A15.87,15.87,0,0,1,111.37,16V71.56A15.87,15.87,0,0,1,95.5,55.69V23.94A7.94,7.94,0,0,0,87.56,16Z"/><rect class="a" x="0.26" y="31.88" width="79.37" height="79.37" rx="7.94"/><path class="a" d="M190.49,103.52c-4.4,8.33-15.83,8.92-24.63,8.92-6.79,0-13.57-.47-17.5-.83-4.88-.47-6.19-1.66-6.19-4.16v-4c0-4.29.72-5.71,4.53-5.71,7,0,10.59,1,20.94,1,8,0,9.52-.6,9.52-7.74,0-8.09-.12-8.68-4.16-10.35-5.12-2.14-10-4.17-15-6.31-12.38-5.35-14.87-7.73-14.87-21.89,0-9.05,1.66-16.07,11.78-19.4,4.4-1.43,9.52-1.91,16.54-1.91,5.47,0,8.33.24,13.45.6,4.87.36,6.3,1.55,6.3,4.16v3.93c0,4.29-.83,5.71-4.64,5.71-4.16,0-4.52-.71-21.42-.71-6.66,0-6.42,2.86-6.42,8.69,0,4.28.11,5.23,4.16,7,3.21,1.43,6.55,2.74,9.76,4.16,16.54,7,20.11,8.69,20.11,22.26C192.75,91.38,192.63,99.35,190.49,103.52Z"/><path class="a" d="M255.65,45.56c-6.78,0-12.38-.12-17.49-.24v60.82c0,3.57-1.67,5.23-5.12,5.23h-5.12c-3.93,0-5.71-1.07-5.71-5.23V45.32c-5.12.12-10.83.24-17.61.24-4.88,0-5-3.09-5-5.59V36.76c0-4,2.26-4.88,5-4.88h51.05c2.74,0,5.12.83,5.12,4.88V40C260.77,42.47,260.53,45.56,255.65,45.56Z"/><path class="a" d="M323.43,111.37h-7.14c-3,0-5-.35-7.26-3.21L288.8,82.45h-3.69v23.69c0,3.57-1.55,5.23-5,5.23H275c-3.93,0-5.83-1.07-5.83-5.23V36.76c0-4.65,3.21-4.88,5.83-4.88h22c12.49,0,15.71.83,20.35,5.59,4.4,4.4,6.19,12,6.19,22.25,0,9.76-2.86,15.83-7.86,19.28a18.59,18.59,0,0,1-8,2.86L325.93,104C328.31,106.85,328.78,111.37,323.43,111.37Zm-18.93-65c-1.9-1-7-1-9.16-1-3.81,0-6.9.12-10.23.24V68.89h13.45c4.28,0,6.42-.72,7.73-2.38,1.07-1.43,1.43-3.33,1.43-7.74C307.72,53.89,307.24,47.82,304.5,46.4Z"/><path class="a" d="M400.75,111.37h-6.54c-3.69,0-4.76-1.78-5.6-4.16l-5.23-14.88c-5.12.12-8.93.12-14.16.12-5,0-9.41,0-13.69-.12l-4.76,14c-1.07,3.21-2,5-6.07,5h-5.47c-4.05,0-4.65-1.07-4.65-2.85a12.65,12.65,0,0,1,1-3.69l24.39-68.07c1.31-3.69,2.62-5.36,7-5.36h4.88c4.41,0,5.72,1.67,7,5.24L404.56,106a4.93,4.93,0,0,1,.48,1.78C405,110.78,402.65,111.37,400.75,111.37ZM369.33,52l-9.52,28.08c2.74,0,5.95-.12,9.41-.12,3.68,0,6.18.12,9.63.12Z"/><path class="a" d="M454.54,45.56c-6.79,0-12.38-.12-17.5-.24v60.82c0,3.57-1.66,5.23-5.12,5.23h-5.11c-3.93,0-5.72-1.07-5.72-5.23V45.32c-5.11.12-10.82.24-17.61.24-4.88,0-5-3.09-5-5.59V36.76c0-4,2.26-4.88,5-4.88h51.06c2.73,0,5.11.83,5.11,4.88V40C459.65,42.47,459.41,45.56,454.54,45.56Z"/><path class="a" d="M521.82,103.87c-5.72,6.79-13.69,10-25,10s-19.52-3.21-25.11-10c-7-8.32-8.81-19.87-8.81-32.13s1.79-23.8,8.81-32.13c5.83-6.9,14-10,25.11-10s19.15,3.09,25,10c7,8.33,8.92,19.88,8.92,32.13S528.84,95.55,521.82,103.87ZM511.58,51.16c-2.61-5.6-8.09-7.62-14.75-7.62s-12.14,2-14.76,7.62c-2.26,5-2.62,14.52-2.62,20.58s.36,15.48,2.62,20.47c2.62,5.6,8.09,7.74,14.76,7.74s12.14-2.14,14.75-7.74c2.26-5,2.62-14.4,2.62-20.47S513.84,56.15,511.58,51.16Z"/></svg>